{
  "accessors": [
    {
      "bufferView": 2,
      "componentType": 5126,
      "count": 8,
      "max": [
        0.13833500444889069,
        0.13237300515174866,
        1.401155948638916
      ],
      "min": [
        -0.13833500444889069,
        0.12570300698280334,
        1.3995729684829712
      ],
      "type": "VEC3"
    },
    {
      "bufferView": 0,
      "componentType": 5125,
      "count": 8,
      "max": [
        7
      ],
      "min": [
        0
      ],
      "type": "SCALAR"
    },
    {
      "bufferView": 2,
      "byteOffset": 96,
      "componentType": 5126,
      "count": 33,
      "max": [
        0.03830999881029129,
        -0.15436400473117828,
        1.5869109630584717
      ],
      "min": [
        -0.038309000432491302,
        -0.17263300716876984,
        1.5125010013580322
      ],
      "type": "VEC3"
    },
    {
      "bufferView": 2,
      "byteOffset": 492,
      "componentType": 5126,
      "count": 33,
      "max": [
        0,
        0.97116893529891968,
        -0.23839238286018372
      ],
      "min": [
        0,
        0.97116893529891968,
        -0.23839238286018372
      ],
      "type": "VEC3"
    },
    {
      "bufferView": 1,
      "componentType": 5126,
      "count": 33,
      "max": [
        0.70912301540374756,
        0.7423509955406189
      ],
      "min": [
        0.70911300182342529,
        0.74233502149581909
      ],
      "type": "VEC2"
    },
    {
      "bufferView": 0,
      "byteOffset": 32,
      "componentType": 5125,
      "count": 96,
      "max": [
        32
      ],
      "min": [
        0
      ],
      "type": "SCALAR"
    },
    {
      "bufferView": 2,
      "byteOffset": 888,
      "componentType": 5126,
      "count": 24,
      "max": [
        0.05774800106883049,
        -0.10888099670410156,
        1.8728890419006348
      ],
      "min": [
        -0.05774800106883049,
        -0.13208599388599396,
        1.8596839904785156
      ],
      "type": "VEC3"
    },
    {
      "bufferView": 2,
      "byteOffset": 1176,
      "componentType": 5126,
      "count": 24,
      "max": [
        0.68963766098022461,
        -0.71393901109695435,
        0.15009866654872894
      ],
      "min": [
        -0.68963766098022461,
        -0.92640995979309082,
        -0.26399534940719604
      ],
      "type": "VEC3"
    },
    {
      "bufferView": 1,
      "byteOffset": 264,
      "componentType": 5126,
      "count": 24,
      "max": [
        0.8255469799041748,
        0.68062901496887207
      ],
      "min": [
        0.81373298168182373,
        0.55947697162628174
      ],
      "type": "VEC2"
    },
    {
      "bufferView": 0,
      "byteOffset": 416,
      "componentType": 5125,
      "count": 72,
      "max": [
        23
      ],
      "min": [
        0
      ],
      "type": "SCALAR"
    },
    {
      "bufferView": 2,
      "byteOffset": 1464,
      "componentType": 5126,
      "count": 74,
      "max": [
        0.042415998876094818,
        -0.16767400503158569,
        1.5944260358810425
      ],
      "min": [
        -0.042415998876094818,
        -0.18932999670505524,
        1.5118000507354736
      ],
      "type": "VEC3"
    },
    {
      "bufferView": 2,
      "byteOffset": 2352,
      "componentType": 5126,
      "count": 74,
      "max": [
        0.76476699113845825,
        0.9989551305770874,
        0.87992465496063232
      ],
      "min": [
        -0.76476699113845825,
        -0.9989551305770874,
        -0.89843082427978516
      ],
      "type": "VEC3"
    },
    {
      "bufferView": 1,
      "byteOffset": 456,
      "componentType": 5126,
      "count": 74,
      "max": [
        2.3904600143432617,
        0.27564400434494019
      ],
      "min": [
        2.1612529754638672,
        -0.090992003679275513
      ],
      "type": "VEC2"
    },
    {
      "bufferView": 0,
      "byteOffset": 704,
      "componentType": 5125,
      "count": 432,
      "max": [
        73
      ],
      "min": [
        0
      ],
      "type": "SCALAR"
    },
    {
      "bufferView": 2,
      "byteOffset": 3240,
      "componentType": 5126,
      "count": 2688,
      "max": [
        0.19095799326896667,
        -0.11810299754142761,
        1.0701359510421753
      ],
      "min": [
        -0.19095799326896667,
        -0.17964600026607513,
        0.73335301876068115
      ],
      "type": "VEC3"
    },
    {
      "bufferView": 2,
      "byteOffset": 35496,
      "componentType": 5126,
      "count": 2688,
      "max": [
        0.99715608358383179,
        0.99840545654296875,
        0.97501349449157715
      ],
      "min": [
        -0.99715608358383179,
        -0.98954635858535767,
        -0.97268456220626831
      ],
      "type": "VEC3"
    },
    {
      "bufferView": 1,
      "byteOffset": 1048,
      "componentType": 5126,
      "count": 2688,
      "max": [
        0.99169397354125977,
        0.98921799659729004
      ],
      "min": [
        0.018156999722123146,
        0.0036410000175237656
      ],
      "type": "VEC2"
    },
    {
      "bufferView": 0,
      "byteOffset": 2432,
      "componentType": 5125,
      "count": 9576,
      "max": [
        2687
      ],
      "min": [
        0
      ],
      "type": "SCALAR"
    },
    {
      "bufferView": 2,
      "byteOffset": 67752,
      "componentType": 5126,
      "count": 10220,
      "max": [
        0.38322201371192932,
        0.20951800048351288,
        1.9738329648971558
      ],
      "min": [
        -0.38322201371192932,
        -0.20594500005245209,
        0.32172900438308716
      ],
      "type": "VEC3"
    },
    {
      "bufferView": 2,
      "byteOffset": 190392,
      "componentType": 5126,
      "count": 10220,
      "max": [
        0.99968737363815308,
        0.99926972389221191,
        0.99925011396408081
      ],
      "min": [
        -0.99968737363815308,
        -0.99990761280059814,
        -0.99676227569580078
      ],
      "type": "VEC3"
    },
    {
      "bufferView": 1,
      "byteOffset": 22552,
      "componentType": 5126,
      "count": 10220,
      "max": [
        2.4979910850524902,
        4.2835049629211426
      ],
      "min": [
        -3.4567101001739502,
        -2.9071578979492188
      ],
      "type": "VEC2"
    },
    {
      "bufferView": 0,
      "byteOffset": 40736,
      "componentType": 5125,
      "count": 40182,
      "max": [
        10219
      ],
      "min": [
        0
      ],
      "type": "SCALAR"
    },
    {
      "bufferView": 2,
      "byteOffset": 313032,
      "componentType": 5126,
      "count": 18,
      "max": [
        0.38720899820327759,
        -0.014549000188708305,
        1.0543880462646484
      ],
      "min": [
        -0.38725501298904419,
        -0.054304998368024826,
        1.0170110464096069
      ],
      "type": "VEC3"
    },
    {
      "bufferView": 2,
      "byteOffset": 313248,
      "componentType": 5126,
      "count": 18,
      "max": [
        0.94035458564758301,
        0.044902607798576355,
        -0.33721956610679626
      ],
      "min": [
        -0.94035458564758301,
        0.044902607798576355,
        -0.33721956610679626
      ],
      "type": "VEC3"
    },
    {
      "bufferView": 1,
      "byteOffset": 104312,
      "componentType": 5126,
      "count": 18,
      "max": [
        0.66522502899169922,
        0.9464460015296936
      ],
      "min": [
        0.46739700436592102,
        0.11089900135993958
      ],
      "type": "VEC2"
    },
    {
      "bufferView": 0,
      "byteOffset": 201464,
      "componentType": 5125,
      "count": 48,
      "max": [
        17
      ],
      "min": [
        0
      ],
      "type": "SCALAR"
    },
    {
      "bufferView": 2,
      "byteOffset": 313464,
      "componentType": 5126,
      "count": 65532,
      "max": [
        0.4605180025100708,
        0.21752199530601501,
        1.9986579418182373
      ],
      "min": [
        -0.4605180025100708,
        -0.217522993683815,
        -0.001867000013589859
      ],
      "type": "VEC3"
    },
    {
      "bufferView": 2,
      "byteOffset": 1099848,
      "componentType": 5126,
      "count": 65532,
      "max": [
        1,
        1,
        0.99999988079071045
      ],
      "min": [
        -1,
        -1,
        -1
      ],
      "type": "VEC3"
    },
    {
      "bufferView": 1,
      "byteOffset": 104456,
      "componentType": 5126,
      "count": 65532,
      "max": [
        2.2379310131072998,
        4.4976859092712402
      ],
      "min": [
        -3.7783958911895752,
        -2.6951069831848145
      ],
      "type": "VEC2"
    },
    {
      "bufferView": 0,
      "byteOffset": 201656,
      "componentType": 5125,
      "count": 293481,
      "max": [
        65531
      ],
      "min": [
        0
      ],
      "type": "SCALAR"
    },
    {
      "bufferView": 2,
      "byteOffset": 1886232,
      "componentType": 5126,
      "count": 12200,
      "max": [
        0.43812298774719238,
        0.2139350026845932,
        1.7914530038833618
      ],
      "min": [
        -0.43812298774719238,
        -0.217522993683815,
        -0.0015050000511109829
      ],
      "type": "VEC3"
    },
    {
      "bufferView": 2,
      "byteOffset": 2032632,
      "componentType": 5126,
      "count": 12200,
      "max": [
        0.99999964237213135,
        0.99989056587219238,
        0.99998855590820312
      ],
      "min": [
        -0.99999964237213135,
        -0.9997667670249939,
        -0.99999833106994629
      ],
      "type": "VEC3"
    },
    {
      "bufferView": 1,
      "byteOffset": 628712,
      "componentType": 5126,
      "count": 12200,
      "max": [
        2.5082499980926514,
        4.1732540130615234
      ],
      "min": [
        -3.776479959487915,
        -3.0929620265960693
      ],
      "type": "VEC2"
    },
    {
      "bufferView": 0,
      "byteOffset": 1375580,
      "componentType": 5125,
      "count": 35019,
      "max": [
        12199
      ],
      "min": [
        0
      ],
      "type": "SCALAR"
    },
    {
      "bufferView": 2,
      "byteOffset": 2179032,
      "componentType": 5126,
      "count": 4404,
      "max": [
        0.44473499059677124,
        0.18001900613307953,
        1.8783830404281616
      ],
      "min": [
        -0.44473499059677124,
        -0.18955400586128235,
        0.99831002950668335
      ],
      "type": "VEC3"
    },
    {
      "bufferView": 2,
      "byteOffset": 2231880,
      "componentType": 5126,
      "count": 4404,
      "max": [
        1,
        0.99961632490158081,
        0.99918699264526367
      ],
      "min": [
        -1,
        -0.99996161460876465,
        -0.99974352121353149
      ],
      "type": "VEC3"
    },
    {
      "bufferView": 1,
      "byteOffset": 726312,
      "componentType": 5126,
      "count": 4404,
      "max": [
        1.3957910537719727,
        1.3957890272140503
      ],
      "min": [
        -0.39579099416732788,
        -0.39579299092292786
      ],
      "type": "VEC2"
    },
    {
      "bufferView": 0,
      "byteOffset": 1515656,
      "componentType": 5125,
      "count": 18948,
      "max": [
        4403
      ],
      "min": [
        0
      ],
      "type": "SCALAR"
    },
    {
      "bufferView": 2,
      "byteOffset": 2284728,
      "componentType": 5126,
      "count": 6926,
      "max": [
        0.41195198893547058,
        0.20521700382232666,
        1.8469630479812622
      ],
      "min": [
        -0.41201499104499817,
        -0.17948600649833679,
        0.011830000206828117
      ],
      "type": "VEC3"
    },
    {
      "bufferView": 2,
      "byteOffset": 2367840,
      "componentType": 5126,
      "count": 6926,
      "max": [
        1,
        0.99998974800109863,
        0.99998354911804199
      ],
      "min": [
        -1,
        -0.99998939037322998,
        -0.99999988079071045
      ],
      "type": "VEC3"
    },
    {
      "bufferView": 1,
      "byteOffset": 761544,
      "componentType": 5126,
      "count": 6926,
      "max": [
        2.5025320053100586,
        2.5072979927062988
      ],
      "min": [
        -3.2826409339904785,
        -1.5054229497909546
      ],
      "type": "VEC2"
    },
    {
      "bufferView": 0,
      "byteOffset": 1591448,
      "componentType": 5125,
      "count": 31830,
      "max": [
        6925
      ],
      "min": [
        0
      ],
      "type": "SCALAR"
    }
  ],
  "asset": {
    "extras": {
      "author": "benjamin.borromeo (https://sketchfab.com/benjamin.borromeo)",
      "license": "CC-BY-4.0 (http://creativecommons.org/licenses/by/4.0/)",
      "source": "https://sketchfab.com/3d-models/iron-man-mark-7subsurf-a13c067e70814dc7b2ebc3f0ace10961",
      "title": "Iron Man Mark-7(Subsurf)"
    },
    "generator": "Sketchfab-8.94.0",
    "version": "2.0"
  },
  "bufferViews": [
    {
      "buffer": 0,
      "byteLength": 1718768,
      "byteOffset": 0,
      "name": "floatBufferViews",
      "target": 34963
    },
    {
      "buffer": 0,
      "byteLength": 816952,
      "byteOffset": 1718768,
      "byteStride": 8,
      "name": "floatBufferViews",
      "target": 34962
    },
    {
      "buffer": 0,
      "byteLength": 2450952,
      "byteOffset": 2535720,
      "byteStride": 12,
      "name": "floatBufferViews",
      "target": 34962
    }
  ],
  "buffers": [
    {
      "byteLength": 4986672,
      "uri": "scene.bin"
    }
  ],
  "materials": [
    {
      "doubleSided": true,
      "emissiveFactor": [
        1,
        1,
        1
      ],
      "name": "ArcReactor",
      "pbrMetallicRoughness": {
        "baseColorFactor": [
          1,
          1,
          1,
          1
        ],
        "metallicFactor": 0,
        "roughnessFactor": 0.59999999999999998
      }
    },
    {
      "doubleSided": true,
      "name": "Black",
      "pbrMetallicRoughness": {
        "baseColorFactor": [
          0.019708368943048015,
          0.009194176841340447,
          0.009194176841340447,
          1
        ],
        "metallicFactor": 0,
        "roughnessFactor": 0.59999999999999998
      }
    },
    {
      "doubleSided": true,
      "name": "Blue",
      "pbrMetallicRoughness": {
        "baseColorFactor": [
          0.29573871984869321,
          0.26701438140444422,
          0.31034588596650325,
          1
        ],
        "metallicFactor": 1,
        "roughnessFactor": 0.40000000000000002
      }
    },
    {
      "doubleSided": true,
      "emissiveFactor": [
        1,
        1,
        1
      ],
      "name": "Eyes",
      "pbrMetallicRoughness": {
        "baseColorFactor": [
          1,
          1,
          1,
          1
        ],
        "metallicFactor": 0,
        "roughnessFactor": 0.59999999999999998
      }
    },
    {
      "doubleSided": true,
      "emissiveFactor": [
        1,
        1,
        1
      ],
      "name": "Glass",
      "pbrMetallicRoughness": {
        "baseColorFactor": [
          1,
          1,
          1,
          1
        ],
        "metallicFactor": 0,
        "roughnessFactor": 0.59999999999999998
      }
    },
    {
      "doubleSided": true,
      "name": "Gold",
      "pbrMetallicRoughness": {
        "baseColorFactor": [
          0.23944218220440913,
          0.22730042463303693,
          0.048754841058827117,
          1
        ],
        "metallicFactor": 1,
        "roughnessFactor": 0.25650882537134656
      }
    },
    {
      "doubleSided": true,
      "emissiveFactor": [
        0,
        0,
        0
      ],
      "name": "material",
      "pbrMetallicRoughness": {
        "baseColorFactor": [
          0.15090114725019055,
          0.035247233727069678,
          0.035247233727069678,
          1
        ],
        "metallicFactor": 1,
        "roughnessFactor": 0.26258899853467821
      }
    },
    {
      "doubleSided": true,
      "emissiveFactor": [
        0.98020817537470994,
        1,
        1
      ],
      "name": "Repulsor",
      "pbrMetallicRoughness": {
        "baseColorFactor": [
          1,
          1,
          1,
          1
        ],
        "metallicFactor": 0,
        "roughnessFactor": 1
      }
    },
    {
      "doubleSided": true,
      "name": "Silver",
      "pbrMetallicRoughness": {
        "baseColorFactor": [
          0.39218956587185461,
          0.39218956587185461,
          0.39218956587185461,
          1
        ],
        "metallicFactor": 1,
        "roughnessFactor": 0.098424323124722601
      }
    }
  ],
  "meshes": [
    {
      "primitives": [
        {
          "attributes": {
            "POSITION": 0
          },
          "indices": 1,
          "material": 0,
          "mode": 1
        }
      ]
    },
    {
      "primitives": [
        {
          "attributes": {
            "NORMAL": 3,
            "POSITION": 2,
            "TEXCOORD_0": 4
          },
          "indices": 5,
          "material": 0,
          "mode": 4
        }
      ]
    },
    {
      "primitives": [
        {
          "attributes": {
            "NORMAL": 7,
            "POSITION": 6,
            "TEXCOORD_0": 8
          },
          "indices": 9,
          "material": 3,
          "mode": 4
        }
      ]
    },
    {
      "primitives": [
        {
          "attributes": {
            "NORMAL": 11,
            "POSITION": 10,
            "TEXCOORD_0": 12
          },
          "indices": 13,
          "material": 4,
          "mode": 4
        }
      ]
    },
    {
      "primitives": [
        {
          "attributes": {
            "NORMAL": 15,
            "POSITION": 14,
            "TEXCOORD_0": 16
          },
          "indices": 17,
          "material": 2,
          "mode": 4
        }
      ]
    },
    {
      "primitives": [
        {
          "attributes": {
            "NORMAL": 19,
            "POSITION": 18,
            "TEXCOORD_0": 20
          },
          "indices": 21,
          "material": 5,
          "mode": 4
        }
      ]
    },
    {
      "primitives": [
        {
          "attributes": {
            "NORMAL": 23,
            "POSITION": 22,
            "TEXCOORD_0": 24
          },
          "indices": 25,
          "material": 7,
          "mode": 4
        }
      ]
    },
    {
      "primitives": [
        {
          "attributes": {
            "NORMAL": 27,
            "POSITION": 26,
            "TEXCOORD_0": 28
          },
          "indices": 29,
          "material": 6,
          "mode": 4
        }
      ]
    },
    {
      "primitives": [
        {
          "attributes": {
            "NORMAL": 31,
            "POSITION": 30,
            "TEXCOORD_0": 32
          },
          "indices": 33,
          "material": 6,
          "mode": 4
        }
      ]
    },
    {
      "primitives": [
        {
          "attributes": {
            "NORMAL": 35,
            "POSITION": 34,
            "TEXCOORD_0": 36
          },
          "indices": 37,
          "material": 1,
          "mode": 4
        }
      ]
    },
    {
      "primitives": [
        {
          "attributes": {
            "NORMAL": 39,
            "POSITION": 38,
            "TEXCOORD_0": 40
          },
          "indices": 41,
          "material": 8,
          "mode": 4
        }
      ]
    }
  ],
  "nodes": [
    {
      "children": [
        1
      ],
      "name": "RootNode (gltf orientation matrix)",
      "rotation": [
        -0.70710678118654746,
        -0,
        -0,
        0.70710678118654757
      ]
    },
    {
      "children": [
        2
      ],
      "name": "RootNode (model correction matrix)"
    },
    {
      "children": [
        3,
        4,
        5,
        6,
        7,
        8,
        9,
        10,
        11,
        12,
        13
      ],
      "name": "Iron_man_Mark-7(Subsurf).obj.cleaner.materialmerger.gles"
    },
    {
      "mesh": 0,
      "name": ""
    },
    {
      "mesh": 1,
      "name": ""
    },
    {
      "mesh": 2,
      "name": ""
    },
    {
      "mesh": 3,
      "name": ""
    },
    {
      "mesh": 4,
      "name": ""
    },
    {
      "mesh": 5,
      "name": ""
    },
    {
      "mesh": 6,
      "name": ""
    },
    {
      "mesh": 7,
      "name": ""
    },
    {
      "mesh": 8,
      "name": ""
    },
    {
      "mesh": 9,
      "name": ""
    },
    {
      "mesh": 10,
      "name": ""
    }
  ],
  "scene": 0,
  "scenes": [
    {
      "name": "OSG_Scene",
      "nodes": [
        0
      ]
    }
  ]
}

